<svg width="24" height="24" viewBox="0 0 24 24" fill="none" xmlns="http://www.w3.org/2000/svg">
<path d="M13.08 20.4078C12.486 21.1974 11.514 21.1974 10.92 20.4078L9.56999 18.6132C9.41699 18.4158 9.093 18.2542 8.85 18.2542H8.4C4.8 18.2542 3 17.3569 3 12.8704V8.38385C3 4.79462 4.8 3 8.4 3H15.6C19.2 3 21 4.79462 21 8.38385V12.8704" stroke="#004393" stroke-width="1.5" stroke-miterlimit="10" stroke-linecap="round" stroke-linejoin="round"/>
<path d="M17.5831 20.4631C19.1737 20.4631 20.4631 19.1737 20.4631 17.5831C20.4631 15.9926 19.1737 14.7031 17.5831 14.7031C15.9926 14.7031 14.7031 15.9926 14.7031 17.5831C14.7031 19.1737 15.9926 20.4631 17.5831 20.4631Z" stroke="#004393" stroke-width="1.5" stroke-linecap="round" stroke-linejoin="round"/>
<path d="M21.0016 21.0016L20.1016 20.1016" stroke="#004393" stroke-width="1.5" stroke-linecap="round" stroke-linejoin="round"/>
<path d="M16 11H16.0089" stroke="#004393" stroke-width="1.5" stroke-linecap="round" stroke-linejoin="round"/>
<path d="M11.9922 11H12.0012" stroke="#004393" stroke-width="1.5" stroke-linecap="round" stroke-linejoin="round"/>
<path d="M7.99219 11H8.00117" stroke="#004393" stroke-width="1.5" stroke-linecap="round" stroke-linejoin="round"/>
</svg>
