<svg width="24" height="24" viewBox="0 0 24 24" fill="none" xmlns="http://www.w3.org/2000/svg">
<path fill-rule="evenodd" clip-rule="evenodd" d="M13.7173 20.6982C13.5195 20.8994 13.2818 21 13.0042 21C12.6779 21 12.4333 20.8838 12.2702 20.6514C12.1071 20.419 11.963 20.0947 11.8381 19.6785L9.99532 13.6431C9.93285 13.4211 9.91723 13.2286 9.94846 13.0656C9.9797 12.9025 10.0647 12.7447 10.2035 12.5921L20.1983 2.08221C20.24 2.03365 20.2643 1.98162 20.2712 1.92612C20.2782 1.87062 20.2573 1.82206 20.2087 1.78044C20.174 1.74575 20.1289 1.73014 20.0734 1.73361C20.0179 1.73708 19.9658 1.76309 19.9172 1.81165L9.41229 11.8012C9.25959 11.9469 9.09995 12.0336 8.93337 12.0614C8.76679 12.0891 8.57592 12.0718 8.36075 12.0094L2.28058 10.1467C1.87107 10.0288 1.55527 9.88831 1.33316 9.72529C1.11105 9.56226 1 9.31773 1 8.99168C1 8.71419 1.10064 8.47832 1.30193 8.28408C1.50321 8.08984 1.77737 7.92334 2.12441 7.7846L19.4175 1.1769C19.5702 1.1214 19.7142 1.07804 19.8496 1.04683C19.9849 1.01561 20.1081 1 20.2192 1C20.4621 1 20.653 1.06764 20.7918 1.20291C20.9306 1.33819 21 1.5307 21 1.78044C21 1.89143 20.9844 2.01457 20.9531 2.14984C20.9219 2.28512 20.8785 2.42907 20.823 2.58169L14.2223 19.8241C14.0835 20.2057 13.9151 20.4971 13.7173 20.6982ZM19 16H20V19H23V20H20V23H19V20H16V19H19V16Z" fill="white"/>
</svg>
